<?xml version="1.0" encoding="utf-8"?>
<!-- Generator: Adobe Illustrator 16.0.0, SVG Export Plug-In . SVG Version: 6.00 Build 0)  -->
<!DOCTYPE svg PUBLIC "-//W3C//DTD SVG 1.1//EN" "http://www.w3.org/Graphics/SVG/1.1/DTD/svg11.dtd">
<svg version="1.1" id="Layer_1" xmlns="http://www.w3.org/2000/svg" xmlns:xlink="http://www.w3.org/1999/xlink" x="0px" y="0px"
	 width="347.9px" height="346.809px" viewBox="0 0 347.9 346.809" enable-background="new 0 0 347.9 346.809" xml:space="preserve">
<g>
	<path fill="#4C4C4C" stroke="#FFFFFF" stroke-width="3" stroke-miterlimit="10" d="M343.752,171.753
		c0,93.612-75.884,169.498-169.495,169.498c-93.609,0-169.495-75.886-169.495-169.498C4.761,78.146,80.647,2.26,174.257,2.26
		C267.868,2.26,343.752,78.146,343.752,171.753z"/>
	<g>
		<g>
			<defs>
				<rect id="SVGID_1_" x="87.671" y="117.056" width="169.176" height="123.366"/>
			</defs>
			<clipPath id="SVGID_2_">
				<use xlink:href="#SVGID_1_"  overflow="visible"/>
			</clipPath>
			<path clip-path="url(#SVGID_2_)" fill="#FFFFFF" d="M255.657,135.113L151.075,239.698c-0.925,0.922-2.415,0.922-3.332,0
				l-59.38-59.394c-0.924-0.913-0.924-2.405,0-3.32l14.43-14.43c0.915-0.927,2.407-0.927,3.33,0l43.29,43.289l88.492-88.489
				c0.918-0.927,2.41-0.927,3.335,0l14.418,14.427C256.582,132.696,256.582,134.191,255.657,135.113L255.657,135.113z
				 M255.657,135.113"/>
		</g>
	</g>
</g>
</svg>
