<?xml version="1.0" encoding="utf-8"?>
<!-- Generator: Adobe Illustrator 16.0.0, SVG Export Plug-In . SVG Version: 6.00 Build 0)  -->
<!DOCTYPE svg PUBLIC "-//W3C//DTD SVG 1.1//EN" "http://www.w3.org/Graphics/SVG/1.1/DTD/svg11.dtd">
<svg version="1.1" id="Layer_1" xmlns="http://www.w3.org/2000/svg" xmlns:xlink="http://www.w3.org/1999/xlink" x="0px" y="0px"
	 width="347.9px" height="346.81px" viewBox="0 0 347.9 346.81" enable-background="new 0 0 347.9 346.81" xml:space="preserve">
<g>
	<path fill="#4C4C4C" stroke="#FFFFFF" stroke-width="3" stroke-miterlimit="10" d="M343.388,174.065
		c0,93.186-75.54,168.73-168.73,168.73c-93.187,0-168.73-75.544-168.73-168.73c0-93.187,75.543-168.73,168.73-168.73
		C267.848,5.335,343.388,80.878,343.388,174.065z"/>
	<g>
		<g>
			<defs>
				<rect id="SVGID_1_" x="83.641" y="118.229" width="179.439" height="113.077"/>
			</defs>
			<clipPath id="SVGID_2_">
				<use xlink:href="#SVGID_1_"  overflow="visible"/>
			</clipPath>
			<path clip-path="url(#SVGID_2_)" fill="#FFFFFF" d="M83.641,117.785v113.182h179.242V117.785H83.641z M255.312,125.353v5.613
				l-82.05,57.708l-82.05-57.708v-5.613H255.312z M91.212,223.386v-83.155l79.862,56.177c0.657,0.462,1.421,0.691,2.188,0.691
				c0.763,0,1.511-0.229,2.171-0.691l79.864-56.177v83.155H91.212z M91.212,223.386"/>
		</g>
	</g>
</g>
</svg>
