<?xml version="1.0" encoding="utf-8"?>
<!-- Generator: Adobe Illustrator 16.0.0, SVG Export Plug-In . SVG Version: 6.00 Build 0)  -->
<!DOCTYPE svg PUBLIC "-//W3C//DTD SVG 1.1//EN" "http://www.w3.org/Graphics/SVG/1.1/DTD/svg11.dtd">
<svg version="1.1" id="Layer_1" xmlns="http://www.w3.org/2000/svg" xmlns:xlink="http://www.w3.org/1999/xlink" x="0px" y="0px"
	 width="87px" height="80px" viewBox="376.445 257.14 87 80" enable-background="new 376.445 257.14 87 80" xml:space="preserve">
<g>
	<path fill="none" stroke="#FFFFFF" stroke-miterlimit="10" d="M404.55,303.443l2.771-0.751c2.088-0.561,4.23-1.137,5.964-1.688
		c-1.309-1.999-2.481-4.285-3.45-6.692c-0.614-0.536-1.182-1.173-1.695-1.89c-0.917-1.268-1.6-2.773-2.016-4.478
		c-0.247-1.052-0.369-2.104-0.369-3.131c0.007-1.896,0.394-3.591,1.15-5.044c0.175-3.534,1.151-6.864,2.708-9.793
		c-1.831-1.365-4.05-2.159-6.434-2.168c-6.229,0.009-11.316,5.469-11.444,12.251c-0.469,0.728-0.719,1.648-0.719,2.701
		c0,0.522,0.06,1.052,0.188,1.575c0.206,0.846,0.547,1.604,1,2.23c0.333,0.469,0.711,0.854,1.113,1.137
		c0.893,2.362,2.104,4.487,3.458,6.088c0,0.021,0,0.035,0,0.059c0,0.027,0,0.083-0.007,0.145c-0.25,0.15-0.68,0.366-1.348,0.6
		c-1.241,0.444-2.95,0.905-4.769,1.397l-1.732,0.473c-2.778,0.814-6.118,3.503-6.254,11.736c0,0.092,0,0.19,0.007,0.282l0.009,0.294
		l0.06,1.173l1.104,0.401l0.273,0.097c3.193,1.168,6.774,2.008,10.582,2.507C397.033,307.03,401.031,304.487,404.55,303.443
		L404.55,303.443z M451.085,306.205c-0.916-0.259-1.811-0.502-2.681-0.734c-2.832-0.758-5.503-1.476-7.463-2.188
		c-1.022-0.356-1.688-0.688-2.074-0.93c-0.008-0.062-0.008-0.125-0.008-0.16c0-0.056,0-0.099-0.008-0.146
		c2.127-2.513,4.012-5.828,5.419-9.521c0.636-0.455,1.212-1.045,1.72-1.757c0.728-1.009,1.271-2.22,1.582-3.524
		c0.188-0.812,0.288-1.629,0.288-2.447c-0.009-1.642-0.395-3.073-1.129-4.217c-0.174-10.565-8.114-19.126-17.894-19.136
		c-9.736,0.01-17.684,8.536-17.896,19.136c-0.727,1.144-1.113,2.575-1.121,4.233c0,0.811,0.101,1.64,0.297,2.45
		c0.318,1.324,0.855,2.513,1.565,3.489c0.516,0.735,1.115,1.342,1.734,1.779c1.398,3.691,3.284,7.002,5.412,9.515
		c0,0.023,0,0.056-0.008,0.083c0,0.062-0.008,0.14-0.008,0.228c-0.385,0.236-1.068,0.575-2.112,0.938
		c-1.93,0.697-4.603,1.423-7.441,2.18l-2.716,0.734c-4.336,1.286-9.562,5.487-9.765,18.352c-0.008,0.141,0,0.292,0.008,0.435
		l0.022,0.456l0.089,1.842l1.728,0.627l0.424,0.15c8.568,3.134,18.877,4.794,29.793,4.794c10.914,0,21.217-1.652,29.785-4.794
		l0.446-0.168l1.785-0.649l0.031-1.898l0.007-0.517v-0.41C460.682,311.685,455.468,307.49,451.085,306.205L451.085,306.205z"/>
</g>
</svg>
