<?xml version="1.0" encoding="utf-8"?>
<!-- Generator: Adobe Illustrator 16.0.0, SVG Export Plug-In . SVG Version: 6.00 Build 0)  -->
<!DOCTYPE svg PUBLIC "-//W3C//DTD SVG 1.1//EN" "http://www.w3.org/Graphics/SVG/1.1/DTD/svg11.dtd">
<svg version="1.1" id="Layer_1" xmlns="http://www.w3.org/2000/svg" xmlns:xlink="http://www.w3.org/1999/xlink" x="0px" y="0px"
	 width="64.445px" height="68.14px" viewBox="0 0 64.445 68.14" enable-background="new 0 0 64.445 68.14" xml:space="preserve">
<path fill="none" stroke="#FFFFFF" stroke-width="1.5" stroke-miterlimit="10" d="M51.984,42.6
	c-0.813-0.229-1.608-0.442-2.383-0.652c-2.521-0.674-4.896-1.312-6.641-1.945c-0.909-0.316-1.503-0.611-1.847-0.827
	c-0.007-0.055-0.007-0.109-0.007-0.141c0-0.051,0-0.091-0.007-0.132c1.893-2.234,3.57-5.184,4.822-8.471
	c0.565-0.404,1.078-0.929,1.528-1.562c0.646-0.896,1.132-1.975,1.407-3.139c0.169-0.72,0.255-1.447,0.255-2.176
	c-0.006-1.461-0.35-2.734-1.003-3.751c-0.155-9.401-7.22-17.017-15.92-17.024c-8.661,0.008-15.729,7.596-15.92,17.024
	c-0.646,1.017-0.99,2.29-0.997,3.766c0,0.721,0.088,1.46,0.264,2.181c0.283,1.179,0.761,2.235,1.394,3.105
	c0.459,0.653,0.991,1.192,1.543,1.582c1.244,3.286,2.922,6.229,4.814,8.465c0,0.021,0,0.05-0.007,0.074
	c0,0.058-0.006,0.123-0.006,0.203c-0.343,0.21-0.951,0.512-1.879,0.834c-1.717,0.62-4.095,1.267-6.621,1.94l-2.417,0.652
	c-3.857,1.146-8.506,4.882-8.688,16.325c-0.007,0.126,0,0.261,0.008,0.388l0.021,0.405l0.079,1.638l1.536,0.559l0.378,0.134
	c7.624,2.789,16.794,4.266,26.505,4.266c9.71,0,18.876-1.47,26.5-4.266l0.397-0.147l1.589-0.579l0.026-1.688l0.007-0.46v-0.363
	C60.523,47.476,55.885,43.744,51.984,42.6L51.984,42.6z"/>
</svg>
