<?xml version="1.0" encoding="utf-8"?>
<!-- Generator: Adobe Illustrator 16.0.0, SVG Export Plug-In . SVG Version: 6.00 Build 0)  -->
<!DOCTYPE svg PUBLIC "-//W3C//DTD SVG 1.1//EN" "http://www.w3.org/Graphics/SVG/1.1/DTD/svg11.dtd">
<svg version="1.1" id="Layer_1" xmlns="http://www.w3.org/2000/svg" xmlns:xlink="http://www.w3.org/1999/xlink" x="0px" y="0px"
	 width="174.779px" height="245.473px" viewBox="0 0 174.779 245.473" enable-background="new 0 0 174.779 245.473"
	 xml:space="preserve">
<path fill="none" d="M168.001,9.501"/>
<g>
	<polygon fill="none" stroke="#B7B7B7" stroke-width="3" stroke-miterlimit="10" points="172.501,1.001 172.501,166.462 
		86.964,241.177 1.5,166.317 1.5,1.001 	"/>
	<line fill="none" stroke="#B7B7B7" stroke-width="3" stroke-miterlimit="10" x1="1" y1="46.001" x2="174.001" y2="46.001"/>
	<rect x="3" y="2.501" opacity="0.2" fill="#565656" enable-background="new    " width="168.001" height="42"/>
</g>
<g>
	<path fill="none" stroke="#FFFFFF" stroke-miterlimit="10" d="M102.339,183.164c-2.584-2.584-4.521-2.193-4.521-2.193l-9.046,9.043
		l-10.335,10.336l-1.809,8.524l8.525-1.808l19.378-19.379C104.532,187.688,104.921,185.748,102.339,183.164L102.339,183.164z
		 M78.492,200.16l6.603,6.604 M84.255,198.649l13.763-13.763 M87.388,200.439l13.763-13.762"/>
	<line fill="none" stroke="#FFFFFF" stroke-miterlimit="10" x1="77.262" y1="205.587" x2="79.92" y2="208.244"/>
</g>
<g>
	<g>
		<line fill="none" stroke="#B7B7B7" stroke-miterlimit="10" x1="2" y1="166" x2="4" y2="166"/>
		<line fill="none" stroke="#B7B7B7" stroke-miterlimit="10" stroke-dasharray="4,4" x1="8" y1="166" x2="169.001" y2="166"/>
		<line fill="none" stroke="#B7B7B7" stroke-miterlimit="10" x1="171.001" y1="166" x2="173.001" y2="166"/>
	</g>
</g>
</svg>
