<?xml version="1.0" encoding="utf-8"?>
<!-- Generator: Adobe Illustrator 16.0.0, SVG Export Plug-In . SVG Version: 6.00 Build 0)  -->
<!DOCTYPE svg PUBLIC "-//W3C//DTD SVG 1.1//EN" "http://www.w3.org/Graphics/SVG/1.1/DTD/svg11.dtd">
<svg version="1.1" id="Layer_1" xmlns="http://www.w3.org/2000/svg" xmlns:xlink="http://www.w3.org/1999/xlink" x="0px" y="0px"
	 width="93.112px" height="75.473px" viewBox="0 0 93.112 75.473" enable-background="new 0 0 93.112 75.473" xml:space="preserve">
<g>
	<path fill="none" stroke="#FFFFFF" stroke-miterlimit="10" d="M84.891,16.97l-1.025-2.427c0,0,2.382-5.365,2.17-5.577l-3.15-3.067
		c-0.22-0.208-5.584,2.234-5.584,2.234l-2.473-0.995c0,0-2.188-5.441-2.492-5.441h-4.438c-0.312,0-2.337,5.45-2.337,5.45
		l-2.473,1.006c0,0-5.475-2.335-5.685-2.125l-3.143,3.078c-0.219,0.208,2.28,5.466,2.28,5.466l-1.017,2.428
		c0,0-5.56,2.143-5.56,2.426v4.357c0,0.302,5.568,2.289,5.568,2.289l1.024,2.417c0,0-2.38,5.365-2.17,5.566l3.141,3.086
		c0.222,0.202,5.586-2.243,5.586-2.243l2.48,0.999c0,0,2.181,5.442,2.481,5.442h4.45c0.303,0,2.324-5.451,2.324-5.451l2.481-1.007
		c0,0,5.466,2.334,5.679,2.124l3.148-3.077c0.219-0.208-2.29-5.466-2.29-5.466l1.026-2.428c0,0,5.549-2.143,5.549-2.437v-4.349
		C90.459,18.948,84.891,16.97,84.891,16.97L84.891,16.97z M77.963,21.906c0,4.185-3.477,7.582-7.751,7.582
		c-4.271,0-7.75-3.397-7.75-7.582c0-4.18,3.479-7.578,7.75-7.578C74.487,14.326,77.963,17.726,77.963,21.906L77.963,21.906z"/>
	<path fill="none" stroke="#FFFFFF" stroke-miterlimit="10" d="M48.11,40.937l-1.355-3.206c0,0,3.146-7.093,2.868-7.372
		l-4.163-4.054c-0.291-0.274-7.382,2.953-7.382,2.953l-3.268-1.317c0,0-2.893-7.189-3.293-7.189h-5.868
		c-0.411,0-3.086,7.203-3.086,7.203l-3.268,1.329c0,0-7.236-3.085-7.514-2.808l-4.151,4.065c-0.291,0.275,3.014,7.227,3.014,7.227
		l-1.344,3.206c0,0-7.346,2.831-7.346,3.205v5.761c0,0.398,7.357,3.024,7.357,3.024l1.354,3.193c0,0-3.146,7.092-2.868,7.357
		l4.151,4.077c0.291,0.268,7.381-2.964,7.381-2.964l3.28,1.32c0,0,2.881,7.191,3.277,7.191h5.883c0.397,0,3.072-7.204,3.072-7.204
		l3.28-1.331c0,0,7.224,3.086,7.503,2.807l4.161-4.064c0.29-0.275-3.025-7.225-3.025-7.225l1.356-3.207c0,0,7.333-2.832,7.333-3.22
		v-5.746C55.466,43.551,48.11,40.937,48.11,40.937L48.11,40.937z M38.954,47.457c0,5.529-4.594,10.022-10.243,10.022
		c-5.646,0-10.243-4.493-10.243-10.022c0-5.521,4.599-10.015,10.243-10.015C34.36,37.444,38.954,41.936,38.954,47.457L38.954,47.457
		z"/>
</g>
</svg>
