<?xml version="1.0" encoding="utf-8"?>
<!-- Generator: Adobe Illustrator 16.0.0, SVG Export Plug-In . SVG Version: 6.00 Build 0)  -->
<!DOCTYPE svg PUBLIC "-//W3C//DTD SVG 1.1//EN" "http://www.w3.org/Graphics/SVG/1.1/DTD/svg11.dtd">
<svg version="1.1" id="Layer_1" xmlns="http://www.w3.org/2000/svg" xmlns:xlink="http://www.w3.org/1999/xlink" x="0px" y="0px"
	 width="96.445px" height="42.806px" viewBox="0 0 96.445 42.806" enable-background="new 0 0 96.445 42.806" xml:space="preserve">
<path fill="none" stroke="#FFFFFF" stroke-miterlimit="10" d="M9.478,40.929c3.147,0,5.741-2.56,5.741-5.709
	c0-0.559-0.184-1.088-0.356-1.622c7.331-5.879,20.241-16.268,26.133-20.803c0.911,0.647,1.994,1.125,3.229,1.125
	c1.004,0,1.913-0.327,2.744-0.801c3.789,3.207,10.207,8.685,14.792,12.565c-0.051,0.353-0.206,0.646-0.206,0.97
	c0,3.179,2.564,5.743,5.742,5.743c3.147,0,5.71-2.564,5.71-5.743c0-0.555-0.179-1.049-0.324-1.559l14.801-13.355
	c0.793,0.407,1.646,0.702,2.619,0.702c3.146,0,5.707-2.554,5.707-5.705c0-3.178-2.561-5.737-5.707-5.737
	c-3.18,0-5.71,2.56-5.71,5.737c0,0.732,0.146,1.471,0.413,2.119c-4.119,3.737-10.505,9.508-14.479,13.091
	c-0.881-0.59-1.883-1.001-3.029-1.001c-1.354,0-2.53,0.533-3.502,1.323c-3.8-3.236-9.891-8.412-14.246-12.119
	c0.243-0.618,0.387-1.236,0.387-1.942c0-3.183-2.564-5.74-5.712-5.74c-3.148,0-5.702,2.559-5.702,5.74
	c0,0.706,0.145,1.354,0.376,1.973l-26.243,20.42c-0.912-0.646-1.979-1.094-3.179-1.094c-3.148,0-5.711,2.563-5.711,5.713
	C3.767,38.37,6.33,40.929,9.478,40.929L9.478,40.929z"/>
</svg>
