<?xml version="1.0" encoding="utf-8"?>
<!-- Generator: Adobe Illustrator 16.0.0, SVG Export Plug-In . SVG Version: 6.00 Build 0)  -->
<!DOCTYPE svg PUBLIC "-//W3C//DTD SVG 1.1//EN" "http://www.w3.org/Graphics/SVG/1.1/DTD/svg11.dtd">
<svg version="1.1" id="Layer_1" xmlns="http://www.w3.org/2000/svg" xmlns:xlink="http://www.w3.org/1999/xlink" x="0px" y="0px"
	 width="253.402px" height="232px" viewBox="0 0 253.402 232" enable-background="new 0 0 253.402 232" xml:space="preserve">
<g>
	<path fill="none" stroke="#FFFFFF" stroke-width="2" stroke-miterlimit="10" d="M72.157,136.211l8.814-2.388
		c6.641-1.782,13.451-3.615,18.965-5.366c-4.163-6.357-7.893-13.627-10.975-21.281c-1.952-1.705-3.756-3.73-5.392-6.01
		c-2.914-4.027-5.085-8.819-6.407-14.235c-0.789-3.344-1.178-6.688-1.178-9.956c0.023-6.027,1.251-11.418,3.66-16.039
		c0.557-11.239,3.661-21.829,8.613-31.142C82.438,25.452,75.38,22.928,67.8,22.9c-19.808,0.028-35.986,17.39-36.391,38.958
		c-1.491,2.31-2.286,5.242-2.286,8.589c0,1.662,0.19,3.345,0.597,5.009c0.654,2.689,1.738,5.099,3.179,7.096
		c1.062,1.487,2.263,2.714,3.541,3.611c2.838,7.516,6.689,14.273,10.995,19.359c0,0.065,0,0.112,0,0.187
		c0,0.087,0,0.264-0.022,0.457c-0.794,0.481-2.163,1.168-4.282,1.907c-3.948,1.412-9.385,2.878-15.164,4.443l-5.508,1.503
		C13.619,116.613,3,125.159,2.57,151.344c0,0.289,0,0.605,0.023,0.898l0.026,0.934l0.189,3.73l3.511,1.275l0.872,0.309
		c10.154,3.714,21.542,6.385,33.649,7.972C48.256,147.617,60.97,139.531,72.157,136.211L72.157,136.211z M220.136,144.992
		c-2.912-0.818-5.755-1.596-8.521-2.334c-9.007-2.41-17.499-4.691-23.731-6.957c-3.255-1.133-5.369-2.186-6.596-2.952
		c-0.025-0.199-0.025-0.397-0.025-0.51c0-0.177,0-0.313-0.023-0.462c6.763-7.991,12.756-18.533,17.23-30.279
		c2.022-1.447,3.854-3.323,5.469-5.586c2.312-3.208,4.043-7.059,5.031-11.211c0.6-2.578,0.916-5.18,0.916-7.782
		c-0.027-5.221-1.254-9.773-3.59-13.41c-0.553-33.598-25.804-60.82-56.901-60.848c-30.961,0.028-56.229,27.145-56.908,60.848
		c-2.312,3.636-3.538,8.189-3.563,13.465c0,2.575,0.317,5.211,0.944,7.792c1.012,4.211,2.719,7.99,4.978,11.096
		c1.641,2.338,3.546,4.267,5.515,5.658c4.45,11.742,10.446,22.266,17.214,30.257c0,0.072,0,0.176-0.025,0.264
		c0,0.198-0.027,0.443-0.027,0.723c-1.223,0.752-3.395,1.829-6.715,2.984c-6.138,2.219-14.636,4.525-23.665,6.932l-8.638,2.336
		c-13.788,4.092-30.405,17.452-31.049,58.357c-0.024,0.445,0,0.929,0.026,1.382l0.071,1.45l0.284,5.854l5.492,1.994l1.35,0.481
		c27.25,9.962,60.028,15.243,94.742,15.243c34.706,0,67.469-5.258,94.717-15.243l1.422-0.534l5.677-2.068l0.101-6.037l0.021-1.644
		v-1.304C250.657,162.418,234.074,149.083,220.136,144.992L220.136,144.992z"/>
</g>
</svg>
