<?xml version="1.0" encoding="utf-8"?>
<!-- Generator: Adobe Illustrator 16.0.0, SVG Export Plug-In . SVG Version: 6.00 Build 0)  -->
<!DOCTYPE svg PUBLIC "-//W3C//DTD SVG 1.1//EN" "http://www.w3.org/Graphics/SVG/1.1/DTD/svg11.dtd">
<svg version="1.1" id="Layer_1" xmlns="http://www.w3.org/2000/svg" xmlns:xlink="http://www.w3.org/1999/xlink" x="0px" y="0px"
	 width="34.333px" height="32.973px" viewBox="1.279 0 34.333 32.973" enable-background="new 1.279 0 34.333 32.973"
	 xml:space="preserve">
<g>
	<path fill="#FFFFFF" d="M14.241,0C7.483,0,2.001,5.479,2.001,12.241c0,6.756,5.482,12.234,12.24,12.234
		c2.828,0,5.422-0.966,7.493-2.579L32.027,32.19c0.299,0.299,0.688,0.448,1.08,0.448c0.389,0,0.783-0.149,1.082-0.448
		s0.447-0.692,0.447-1.086c0-0.39-0.148-0.781-0.447-1.08L23.9,19.736c1.609-2.072,2.58-4.666,2.58-7.494
		C26.48,5.479,20.998,0,14.241,0L14.241,0z M14.241,21.417c-5.061,0-9.179-4.117-9.179-9.176c0-5.064,4.119-9.184,9.179-9.184
		c5.061,0,9.178,4.119,9.178,9.184C23.419,17.3,19.302,21.417,14.241,21.417L14.241,21.417z"/>
</g>
</svg>
