<?xml version="1.0" encoding="utf-8"?>
<!-- Generator: Adobe Illustrator 16.0.0, SVG Export Plug-In . SVG Version: 6.00 Build 0)  -->
<!DOCTYPE svg PUBLIC "-//W3C//DTD SVG 1.1//EN" "http://www.w3.org/Graphics/SVG/1.1/DTD/svg11.dtd">
<svg version="1.1" id="Layer_1" xmlns="http://www.w3.org/2000/svg" xmlns:xlink="http://www.w3.org/1999/xlink" x="0px" y="0px"
	 width="41.195px" height="30.89px" viewBox="0 0 41.195 30.89" enable-background="new 0 0 41.195 30.89" xml:space="preserve">
<g>
	<g>
		<g>
			<path fill="#FFFFFF" d="M40.126,2.12c0,1.166-1.351,2.119-3,2.119h-32c-1.65,0-3-0.953-3-2.119S3.475,0,5.126,0h32
				C38.775,0,40.126,0.954,40.126,2.12z"/>
		</g>
		<g>
			<path fill="#FFFFFF" d="M40.126,14.863c0,1.166-1.351,2.12-3,2.12h-32c-1.65,0-3-0.954-3-2.12s1.35-2.119,3-2.119h32
				C38.775,12.744,40.126,13.698,40.126,14.863z"/>
		</g>
		<g>
			<path fill="#FFFFFF" d="M40.126,27.63c0,1.166-1.351,2.119-3,2.119h-32c-1.65,0-3-0.953-3-2.119c0-1.165,1.35-2.12,3-2.12h32
				C38.775,25.51,40.126,26.465,40.126,27.63z"/>
		</g>
	</g>
</g>
</svg>
