<?xml version="1.0" encoding="utf-8"?>
<!-- Generator: Adobe Illustrator 16.0.0, SVG Export Plug-In . SVG Version: 6.00 Build 0)  -->
<!DOCTYPE svg PUBLIC "-//W3C//DTD SVG 1.1//EN" "http://www.w3.org/Graphics/SVG/1.1/DTD/svg11.dtd">
<svg version="1.1" id="Layer_1" xmlns="http://www.w3.org/2000/svg" xmlns:xlink="http://www.w3.org/1999/xlink" x="0px" y="0px"
	 width="55.5px" height="75.25px" viewBox="0 0 55.5 75.25" enable-background="new 0 0 55.5 75.25" xml:space="preserve">
<path fill="#E2E2E2" d="M27.807,34.402c5.503,0,9.958-4.456,9.958-9.957c0-5.497-4.455-9.953-9.958-9.953
	c-5.498,0-9.958,4.456-9.958,9.958C17.849,29.946,22.309,34.402,27.807,34.402L27.807,34.402z"/>
<path fill="#E2E2E2" d="M32.03,35.08h-8.447c-7.029,0-12.75,5.722-12.75,12.751v10.335l0.027,0.16l0.712,0.223
	c6.706,2.096,12.535,2.794,17.334,2.794c9.371,0,14.799-2.669,15.138-2.843l0.662-0.334h0.069V47.831
	C44.78,40.802,39.06,35.08,32.03,35.08L32.03,35.08z"/>
</svg>
