<?xml version="1.0" encoding="utf-8"?>
<!-- Generator: Adobe Illustrator 16.0.0, SVG Export Plug-In . SVG Version: 6.00 Build 0)  -->
<!DOCTYPE svg PUBLIC "-//W3C//DTD SVG 1.1//EN" "http://www.w3.org/Graphics/SVG/1.1/DTD/svg11.dtd">
<svg version="1.1" id="Layer_1" xmlns="http://www.w3.org/2000/svg" xmlns:xlink="http://www.w3.org/1999/xlink" x="0px" y="0px"
	 width="161.857px" height="161.333px" viewBox="0 0 161.857 161.333" enable-background="new 0 0 161.857 161.333"
	 xml:space="preserve">
<path fill="none" stroke="#FFFFFF" stroke-width="2" stroke-miterlimit="10" d="M137.159,24.31
	c-31.063-31.08-81.452-31.08-112.515,0c-31.084,31.066-31.084,81.452,0,112.519c31.062,31.061,81.451,31.078,112.515,0
	C168.242,105.762,168.224,55.375,137.159,24.31L137.159,24.31z"/>
<path fill="none" stroke="#FFFFFF" stroke-width="3" stroke-miterlimit="10" d="M91.5,115.157c0,5.737-4.766,10.385-10.511,10.385
	c-5.726,0-10.489-4.646-10.489-10.385V73.651c0-5.743,4.765-10.389,10.489-10.389c5.745,0,10.511,4.646,10.511,10.389V115.157z"/>
<path fill="none" stroke="#FFFFFF" stroke-width="3" stroke-miterlimit="10" d="M80.706,55.917c-5.977,0-9.945-4.242-9.829-9.48
	c-0.116-5.469,3.854-9.574,9.966-9.574c6.099,0,9.95,4.105,10.083,9.574C90.926,51.674,86.941,55.917,80.706,55.917L80.706,55.917z"
	/>
</svg>
