<?xml version="1.0" encoding="utf-8"?>
<!-- Generator: Adobe Illustrator 16.0.0, SVG Export Plug-In . SVG Version: 6.00 Build 0)  -->
<!DOCTYPE svg PUBLIC "-//W3C//DTD SVG 1.1//EN" "http://www.w3.org/Graphics/SVG/1.1/DTD/svg11.dtd">
<svg version="1.1" id="Layer_1" xmlns="http://www.w3.org/2000/svg" xmlns:xlink="http://www.w3.org/1999/xlink" x="0px" y="0px"
	 width="295.333px" height="296px" viewBox="0 0 295.333 296" enable-background="new 0 0 295.333 296" xml:space="preserve">
<g>
	<path fill="none" stroke="#FFFFFF" stroke-miterlimit="10" d="M147.597,3.607C67.761,3.607,3.014,68.354,3.014,148.188
		c0,79.857,64.748,144.662,144.583,144.662c79.854,0,144.657-64.805,144.657-144.662C292.254,68.354,227.452,3.607,147.597,3.607
		L147.597,3.607z M177.72,227.761c-7.454,2.911-13.386,5.136-17.813,6.681c-4.419,1.568-9.551,2.344-15.416,2.344
		c-9.028,0-16.064-2.223-21.043-6.645c-5.018-4.354-7.46-9.97-7.46-16.738c0-2.635,0.188-5.307,0.539-8.057
		c0.364-2.761,0.962-5.809,1.785-9.279l9.338-32.931c0.822-3.17,1.539-6.155,2.079-8.893c0.553-2.882,0.842-5.442,0.842-7.787
		c0-4.165-0.891-7.111-2.636-8.77c-1.728-1.669-5.014-2.449-9.915-2.449c-2.383,0-4.894,0.343-7.417,1.064
		c-2.511,0.787-4.658,1.503-6.443,2.164l2.451-10.104c6.083-2.511,11.947-4.605,17.495-6.398c5.574-1.801,10.821-2.688,15.796-2.688
		c8.953,0,15.837,2.198,20.666,6.517c4.841,4.3,7.308,9.908,7.308,16.842c0,1.45-0.181,3.961-0.492,7.528
		c-0.348,3.658-0.941,6.93-1.852,9.926l-9.248,32.813c-0.795,2.635-1.449,5.685-2.109,9.023c-0.598,3.348-0.883,5.921-0.883,7.655
		c0,4.36,1.019,7.362,2.931,8.901c1.972,1.631,5.317,2.395,10.157,2.395c2.261,0,4.783-0.42,7.652-1.199
		c2.807-0.764,4.891-1.479,6.2-2.074L177.72,227.761z M176.124,94.597c-4.365,3.984-9.563,6.021-15.676,6.021
		c-6.023,0-11.289-2.037-15.654-6.021c-4.292-4.006-6.512-8.912-6.512-14.646c0-5.692,2.219-10.602,6.512-14.662
		c4.365-3.98,9.63-6.021,15.654-6.021c6.112,0,11.311,2.041,15.676,6.021c4.301,4.061,6.453,8.97,6.453,14.662
		C182.577,85.686,180.422,90.591,176.124,94.597L176.124,94.597z"/>
</g>
</svg>
