<?xml version="1.0" encoding="utf-8"?>
<!-- Generator: Adobe Illustrator 16.0.0, SVG Export Plug-In . SVG Version: 6.00 Build 0)  -->
<!DOCTYPE svg PUBLIC "-//W3C//DTD SVG 1.1//EN" "http://www.w3.org/Graphics/SVG/1.1/DTD/svg11.dtd">
<svg version="1.1" id="Layer_1" xmlns="http://www.w3.org/2000/svg" xmlns:xlink="http://www.w3.org/1999/xlink" x="0px" y="0px"
	 width="177.772px" height="39.818px" viewBox="3 2.496 177.772 39.818" enable-background="new 3 2.496 177.772 39.818"
	 xml:space="preserve">
<g id="los_2_">
	<g>
		<path fill="none" stroke="#FFFFFF" stroke-miterlimit="10" d="M54.535,25.912h-2.079c-0.562,0-0.953-0.478-0.953-0.953v-2.944
			c0-0.562,0.391-0.953,0.953-0.953h2.079v-2.078c0-5.24,2.989-8.662,8.575-8.662c3.334,0,6.41,1.43,7.666,2.122
			c0.434,0.261,0.521,0.866,0.303,1.3l-1.212,2.642c-0.347,0.693-0.953,0.693-1.517,0.389c-0.953-0.519-3.075-1.515-5.197-1.515
			c-2.642,0-3.205,1.299-3.205,3.551v2.252H72.68c0.52,0,0.953,0.391,0.953,0.953v18.103c0,0.521-0.434,0.953-0.953,0.953h-3.508
			c-0.606,0-0.953-0.434-0.953-0.953V25.913h-8.272v14.204c0,0.953-0.65,0.953-1.429,0.953h-3.032c-0.521,0-0.953-0.434-0.953-0.953
			V25.912H54.535z"/>
		<path fill="none" stroke="#FFFFFF" stroke-miterlimit="10" d="M86.109,20.629c1.992,0,3.897,0.476,4.808,0.823v-9.744
			c0-0.477,0.476-0.953,0.952-0.953h3.509c0.52,0,0.952,0.477,0.952,0.953v28.409c0,0.521-0.434,0.953-0.952,0.953h-1.603
			c-0.478,0-0.78-0.39-0.954-0.953l-0.519-1.559c0,0-2.296,2.988-6.54,2.988c-5.457,0-9.571-4.418-9.571-10.48
			C76.192,25.219,80.134,20.629,86.109,20.629z M90.917,26.691c0,0-1.646-1.126-4.157-1.126c-3.291,0-4.98,2.687-4.98,5.501
			s1.604,5.543,4.722,5.543c2.599,0,3.983-1.646,4.416-2.771V26.691z"/>
		<path fill="none" stroke="#FFFFFF" stroke-miterlimit="10" d="M109.064,20.629c5.197,0,9.182,3.854,9.182,9.268
			c0,0.305-0.043,0.996-0.086,1.299c-0.044,0.521-0.521,0.91-0.953,0.91h-12.819c0.045,2.469,2.08,4.635,4.979,4.635
			c1.992,0,3.379-0.735,4.289-1.474c0.477-0.39,0.995-0.433,1.298,0l1.689,2.252c0.347,0.39,0.39,0.866-0.087,1.3
			c-1.732,1.474-4.2,2.729-7.449,2.729c-5.977,0-10.133-4.765-10.133-10.48C98.975,25.436,103.132,20.629,109.064,20.629z
			 M112.789,28.555c-0.086-1.949-1.645-3.465-3.854-3.465c-2.426,0-3.983,1.473-4.244,3.465H112.789z"/>
		<path fill="none" stroke="#FFFFFF" stroke-miterlimit="10" d="M120.631,22.015c0-0.562,0.478-0.953,0.954-0.953h1.646
			c0.476,0,0.692,0.217,0.822,0.607l0.734,1.861c0.737-0.822,2.601-2.901,6.453-2.901c6.367,0,8.015,4.287,8.015,9.139v10.35
			c0,0.521-0.479,0.953-0.954,0.953h-3.509c-0.52,0-0.951-0.434-0.951-0.953v-10.35c0-2.599-1.04-4.202-3.465-4.202
			c-2.6,0-3.855,1.733-4.331,3.118v11.434c0,0.736-0.305,0.953-1.258,0.953h-3.202c-0.478,0-0.954-0.434-0.954-0.953V22.015z"/>
		<path fill="none" stroke="#FFFFFF" stroke-miterlimit="10" d="M152.291,20.629c3.118,0,5.544,1.342,7.449,3.379
			c0.434,0.433,0.218,0.995-0.217,1.428l-1.819,1.992c-0.434,0.477-0.908,0.26-1.298-0.129c-0.953-0.91-2.123-1.733-3.983-1.733
			c-3.119,0-5.285,2.427-5.285,5.501c0,3.117,2.123,5.543,5.24,5.543c2.209,0,3.379-1.213,4.244-2.209
			c0.303-0.346,0.909-0.433,1.256-0.13l1.949,1.646c0.477,0.434,0.692,0.909,0.347,1.43c-1.689,2.642-4.373,4.201-7.926,4.201
			c-5.847,0-10.567-4.461-10.567-10.48C141.68,25.176,146.358,20.629,152.291,20.629z"/>
		<path fill="none" stroke="#FFFFFF" stroke-miterlimit="10" d="M171.092,20.629c5.195,0,9.181,3.854,9.181,9.268
			c0,0.305-0.043,0.996-0.087,1.299c-0.042,0.521-0.521,0.91-0.952,0.91h-12.819c0.042,2.469,2.078,4.635,4.98,4.635
			c1.991,0,3.378-0.735,4.288-1.474c0.476-0.39,0.995-0.433,1.297,0l1.691,2.252c0.346,0.39,0.39,0.866-0.088,1.3
			c-1.732,1.474-4.2,2.729-7.448,2.729c-5.978,0-10.134-4.765-10.134-10.48C161.001,25.436,165.157,20.629,171.092,20.629z
			 M174.814,28.555c-0.086-1.949-1.645-3.465-3.854-3.465c-2.426,0-3.983,1.473-4.244,3.465H174.814z"/>
	</g>
	<g>
		<g>
			<path fill="none" stroke="#FFFFFF" stroke-miterlimit="10" d="M4,3.5h41.637c0,21-19.892,38.314-42.137,38.314V3"/>
		</g>
		<path fill="#1E1E1E" d="M6.659,2.496"/>
		<path fill="none" stroke="#FFFFFF" stroke-miterlimit="10" d="M18.322,39.52c0,0-2.251,0.916-6.713,1.684l0.124-32.128
			l33.249-0.062c0,0-0.299,2.479-1.658,6.299"/>
		<path fill="none" stroke="#FFFFFF" stroke-miterlimit="10" d="M43.324,15.312H18.323v6.257h21.855
			C40.178,21.568,42.352,18.272,43.324,15.312z"/>
		<path fill="none" stroke="#FFFFFF" stroke-miterlimit="10" d="M35.333,28.064H18.358v11.455
			C18.358,39.52,29.15,35.778,35.333,28.064z"/>
	</g>
</g>
</svg>
